# xmcd
#
# Track frame offsets: 
#        150
#        14829
#        28588
#        41999
#        49969
#        60391
#        72294
#        85333
#        117732
#        135285
#        144750
#        161605
#        176500
#        201818
#        221166
#        249819
#        291262
#        311637
#
# Disc length: 4474 seconds
#
# Revision: 0
# Processed by: cddbd v1.5.2PL0 Copyright (c) Steve Scherf et al.
# Submitted via: ExactAudioCopy v0.95b4
#
DISCID=0d117812
DTITLE=Buddy Guy - Can't Quit The Blues - [CD1]
DYEAR=2006
DGENRE=Blues
TTITLE0=The Way You Been Treating Me
TTITLE1=Sit and Cry-(The Blues)-(w Otis Rush and Willie Dixon)
TTITLE2=This Is The End-(w Otis Rush and Willie Dixon)
TTITLE3=Untitled Instrumental
TTITLE4=First Time I Met The Blues
TTITLE5=Ten Years Ago-(w Junior Wells and Otis Spann)
TTITLE6=Let Me Love You Baby-(w Junior Wells and Otis Spann)
TTITLE7=Stone Crazy-(w Otis Spann)
TTITLE8=When My Left Eye Jumps
TTITLE9=Hoodoo Man Blues-(w Junior Wells)
TTITLE10=In The Wee Hours-(w Junior Wells)
TTITLE11=I Can't Quit The Blues
TTITLE12=One Room Country Shack 
TTITLE13=T-Bone Shuffle-(w Eric Clapton, Junior Wells, A.C. Reed and Dr.
TTITLE13=John)
TTITLE14=When You See The Tears From My Eyes-(w Junior Wells, Pinetop 
TTITLE14=Perkins and Bill Wyman)-(L)
TTITLE15=I Smell A Rat
TTITLE16=She Suits Me To A T
TTITLE17=DJ Play My Blues
EXTD=
EXTT0=
EXTT1=
EXTT2=
EXTT3=
EXTT4=
EXTT5=
EXTT6=
EXTT7=
EXTT8=
EXTT9=
EXTT10=
EXTT11=
EXTT12=
EXTT13=
EXTT14=
EXTT15=
EXTT16=
EXTT17=
PLAYORDER=
